<svg xmlns="http://www.w3.org/2000/svg" width="121" height="132" viewBox="0 0 121 132">
    <defs>
        <filter id="a" width="193%" height="187%" x="-46.5%" y="-21.7%" filterUnits="objectBoundingBox">
            <feOffset dy="20" in="SourceAlpha" result="shadowOffsetOuter1"/>
            <feGaussianBlur in="shadowOffsetOuter1" result="shadowBlurOuter1" stdDeviation="10"/>
            <feColorMatrix in="shadowBlurOuter1" result="shadowMatrixOuter1" values="0 0 0 0 0 0 0 0 0 0 0 0 0 0 0 0 0 0 0.3 0"/>
            <feMerge>
                <feMergeNode in="shadowMatrixOuter1"/>
                <feMergeNode in="SourceGraphic"/>
            </feMerge>
        </filter>
    </defs>
    <g fill="#FFF" fill-rule="evenodd" filter="url(#a)" transform="translate(18)">
        <path d="M42.593 13.63c-15.97 0-28.963 12.992-28.963 28.963A28.896 28.896 0 0 0 32.37 69.68v15.504c0 .942.762 1.704 1.704 1.704h1.704v3.407c0 .942.761 1.704 1.703 1.704h10.223c.942 0 1.703-.762 1.703-1.704V86.89h1.704c.942 0 1.704-.762 1.704-1.704V69.681a28.896 28.896 0 0 0 18.74-27.088c0-15.97-12.992-28.963-28.962-28.963zm5.11 69.851c-.941 0-1.703.762-1.703 1.704v3.408h-6.815v-3.408c0-.942-.761-1.704-1.704-1.704h-1.703v-8.518h13.63v8.518h-1.704zm2.877-16.624c-.7.23-1.173.884-1.173 1.618v3.08h-13.63v-3.08c0-.736-.471-1.388-1.171-1.618a25.498 25.498 0 0 1-17.569-24.264c0-14.092 11.464-25.556 25.556-25.556 14.09 0 25.555 11.464 25.555 25.556A25.498 25.498 0 0 1 50.58 66.857zM42.593 10.222c.942 0 1.703-.761 1.703-1.703V1.704a1.702 1.702 0 1 0-3.407 0v6.815c0 .942.761 1.703 1.704 1.703zM83.481 40.889h-6.814c-.942 0-1.704.761-1.704 1.704 0 .942.762 1.703 1.704 1.703h6.814c.943 0 1.704-.761 1.704-1.703 0-.943-.761-1.704-1.704-1.704zM8.519 40.889H1.704C.762 40.889 0 41.65 0 42.593c0 .942.762 1.703 1.704 1.703h6.815c.942 0 1.703-.761 1.703-1.703 0-.943-.761-1.704-1.703-1.704zM70.302 12.475l-4.818 4.818a1.702 1.702 0 0 0 1.204 2.908c.436 0 .872-.167 1.205-.5l4.818-4.817a1.703 1.703 0 1 0-2.409-2.409zM17.293 65.484l-4.818 4.818a1.702 1.702 0 0 0 1.204 2.908c.436 0 .872-.167 1.205-.5l4.818-4.817a1.702 1.702 0 0 0 0-2.41 1.702 1.702 0 0 0-2.41 0zM67.893 65.484a1.702 1.702 0 0 0-2.41 0 1.702 1.702 0 0 0 0 2.409l4.819 4.818a1.699 1.699 0 0 0 2.409 0 1.702 1.702 0 0 0 0-2.41l-4.818-4.817zM17.293 19.702a1.699 1.699 0 0 0 2.409 0 1.702 1.702 0 0 0 0-2.41l-4.818-4.817a1.702 1.702 0 0 0-2.41 0 1.702 1.702 0 0 0 0 2.409l4.819 4.818z"/>
        <path d="M42.593 22.148c-11.274 0-20.445 9.171-20.445 20.445 0 .942.762 1.703 1.704 1.703s1.704-.761 1.704-1.703c0-9.395 7.642-17.037 17.037-17.037.942 0 1.703-.762 1.703-1.704s-.761-1.704-1.703-1.704z"/>
    </g>
</svg>
