<?xml version="1.0" encoding="UTF-8"?>
<svg width="30px" height="30px" viewBox="0 0 30 30" version="1.1" xmlns="http://www.w3.org/2000/svg" xmlns:xlink="http://www.w3.org/1999/xlink">
    <!-- Generator: Sketch 47.1 (45422) - http://www.bohemiancoding.com/sketch -->
    <title>google-plus-logo-button</title>
    <desc>Created with Sketch.</desc>
    <defs></defs>
    <g id="Page-1" stroke="none" stroke-width="1" fill="none" fill-rule="evenodd">
        <g id="Intro-Logger" transform="translate(-730.000000, -696.000000)" fill="#FFFFFF">
            <g id="google-plus-logo-button" transform="translate(730.000000, 696.000000)">
                <g id="Capa_1">
                    <g id="Group">
                        <path d="M12.9,17.364 C12.8034,17.2998 12.7044,17.2302 12.6006,17.16 C12.2988,17.0676 11.9784,17.0196 11.6502,17.0154 L11.6106,17.0154 C10.1022,17.0154 8.7798,17.928 8.7798,18.9696 C8.7798,20.1036 9.9132,20.9898 11.3592,20.9898 C13.2666,20.9898 14.2332,20.331 14.2332,19.035 C14.2332,18.9126 14.2188,18.7854 14.1882,18.6576 C14.0592,18.1548 13.5978,17.841 12.9,17.364 Z" id="Shape"></path>
                        <path d="M11.8314,13.4112 L11.8326,13.4112 C12.1932,13.4112 12.4974,13.269 12.7332,12.999 C13.1028,12.5778 13.2666,11.8866 13.1694,11.1528 C12.9984,9.8412 12.0606,8.7492 11.082,8.721 L11.043,8.7198 C10.6968,8.7198 10.3878,8.8626 10.1532,9.1314 C9.789,9.5472 9.6348,10.206 9.7302,10.9386 C9.9018,12.249 10.8594,13.3812 11.8176,13.4112 L11.8314,13.4112 L11.8314,13.4112 Z" id="Shape"></path>
                        <path d="M14.8956,0 C6.6822,0 0,6.6822 0,14.8956 C0,23.1084 6.6822,29.7912 14.8956,29.7912 C23.1084,29.7912 29.7912,23.1084 29.7912,14.8956 C29.7912,6.6822 23.1096,0 14.8956,0 Z M13.1784,22.149 C12.6156,22.3116 12.0066,22.3938 11.3676,22.3938 C10.656,22.3938 9.972,22.3122 9.3342,22.1508 C8.1,21.8394 7.188,21.249 6.762,20.4882 C6.5784,20.1594 6.4854,19.809 6.4854,19.446 C6.4854,19.0722 6.5748,18.693 6.7512,18.3174 C7.4274,16.8762 9.21,15.9066 11.1846,15.9066 L11.241,15.9066 C11.0808,15.624 11.0034,15.3312 11.0034,15.0234 C11.0034,14.8704 11.0238,14.7144 11.0646,14.5554 C8.9934,14.5086 7.4436,12.9918 7.4436,10.992 C7.4436,9.5802 8.5722,8.2044 10.1862,7.6488 C10.6692,7.482 11.1618,7.3968 11.646,7.3968 L16.0752,7.3968 C16.2258,7.3968 16.3596,7.4946 16.4064,7.638 C16.4532,7.7808 16.4016,7.938 16.2798,8.0262 L15.2892,8.7432 C15.2298,8.7852 15.1584,8.808 15.0846,8.808 L14.73,8.808 C15.1878,9.357 15.456,10.14 15.456,11.019 C15.456,11.9892 14.9652,12.9066 14.0718,13.6056 C13.3818,14.1432 13.3548,14.2914 13.3548,14.598 C13.3632,14.7666 13.8438,15.3168 14.3742,15.6918 C15.6096,16.5654 16.0692,17.4228 16.0692,18.8532 C16.0686,20.3478 14.934,21.639 13.1784,22.149 Z M23.181,14.5518 C23.181,14.7438 23.0244,14.8998 22.833,14.8998 L20.316,14.8998 L20.316,17.418 C20.316,17.61 20.1594,17.766 19.9692,17.766 L19.2522,17.766 C19.059,17.766 18.903,17.61 18.903,17.418 L18.903,14.8998 L16.3878,14.8998 C16.1958,14.8998 16.0398,14.745 16.0398,14.5518 L16.0398,13.836 C16.0398,13.644 16.1958,13.4868 16.3878,13.4868 L18.903,13.4868 L18.903,10.971 C18.903,10.7784 19.059,10.623 19.2522,10.623 L19.9692,10.623 C20.1594,10.623 20.316,10.7784 20.316,10.971 L20.316,13.4868 L22.8324,13.4868 C23.0238,13.4868 23.1804,13.6428 23.1804,13.8348 L23.1804,14.5518 L23.181,14.5518 Z" id="Shape"></path>
                    </g>
                </g>
            </g>
        </g>
    </g>
</svg>