<?xml version="1.0" encoding="UTF-8"?>
<svg width="121px" height="132px" viewBox="0 0 121 132" version="1.1" xmlns="http://www.w3.org/2000/svg" xmlns:xlink="http://www.w3.org/1999/xlink">
    <!-- Generator: Sketch 47.1 (45422) - http://www.bohemiancoding.com/sketch -->
    <title>idea (1)</title>
    <desc>Created with Sketch.</desc>
    <defs>
        <filter x="-46.5%" y="-21.7%" width="193.0%" height="187.0%" filterUnits="objectBoundingBox" id="filter-1">
            <feOffset dx="0" dy="20" in="SourceAlpha" result="shadowOffsetOuter1"></feOffset>
            <feGaussianBlur stdDeviation="10" in="shadowOffsetOuter1" result="shadowBlurOuter1"></feGaussianBlur>
            <feColorMatrix values="0 0 0 0 0   0 0 0 0 0   0 0 0 0 0  0 0 0 0.3 0" type="matrix" in="shadowBlurOuter1" result="shadowMatrixOuter1"></feColorMatrix>
            <feMerge>
                <feMergeNode in="shadowMatrixOuter1"></feMergeNode>
                <feMergeNode in="SourceGraphic"></feMergeNode>
            </feMerge>
        </filter>
    </defs>
    <g id="Page-1" stroke="none" stroke-width="1" fill="none" fill-rule="evenodd">
        <g id="Intro-Logger" transform="translate(-656.000000, -245.000000)" fill="#FFFFFF">
            <g id="idea-(1)" filter="url(#filter-1)" transform="translate(674.000000, 245.000000)">
                <g id="Capa_1">
                    <g id="Group">
                        <path d="M42.5925926,13.6296296 C26.6220741,13.6296296 13.6296296,26.6220741 13.6296296,42.5925926 C13.6296296,54.7093333 21.1105926,65.4426667 32.3703704,69.6814815 L32.3703704,85.1851852 C32.3703704,86.1273333 33.1319259,86.8888889 34.0740741,86.8888889 L35.7777778,86.8888889 L35.7777778,90.2962963 C35.7777778,91.2384444 36.5393333,92 37.4814815,92 L47.7037037,92 C48.6458519,92 49.4074074,91.2384444 49.4074074,90.2962963 L49.4074074,86.8888889 L51.1111111,86.8888889 C52.0532593,86.8888889 52.8148148,86.1273333 52.8148148,85.1851852 L52.8148148,69.6814815 C64.0745926,65.4426667 71.5555556,54.7093333 71.5555556,42.5925926 C71.5555556,26.6220741 58.5631111,13.6296296 42.5925926,13.6296296 Z M47.7037037,83.4814815 C46.7615556,83.4814815 46,84.243037 46,85.1851852 L46,88.5925926 L39.1851852,88.5925926 L39.1851852,85.1851852 C39.1851852,84.243037 38.4236296,83.4814815 37.4814815,83.4814815 L35.7777778,83.4814815 L35.7777778,74.962963 L49.4074074,74.962963 L49.4074074,83.4814815 L47.7037037,83.4814815 Z M50.5795556,66.8567407 C49.8793333,67.0867407 49.4074074,67.740963 49.4074074,68.4752593 L49.4074074,71.5555556 L35.7777778,71.5555556 L35.7777778,68.4752593 C35.7777778,67.7392593 35.3058519,67.0867407 34.6056296,66.8567407 C24.0988889,63.4016296 17.037037,53.6496296 17.037037,42.5925926 C17.037037,28.5012593 28.5012593,17.037037 42.5925926,17.037037 C56.6839259,17.037037 68.1481481,28.5012593 68.1481481,42.5925926 C68.1481481,53.6496296 61.0862963,63.4016296 50.5795556,66.8567407 Z" id="Shape"></path>
                        <path d="M42.5925926,10.2222222 C43.5347407,10.2222222 44.2962963,9.46066667 44.2962963,8.51851852 L44.2962963,1.7037037 C44.2962963,0.761555556 43.5347407,0 42.5925926,0 C41.6504444,0 40.8888889,0.761555556 40.8888889,1.7037037 L40.8888889,8.51851852 C40.8888889,9.46066667 41.6504444,10.2222222 42.5925926,10.2222222 Z" id="Shape"></path>
                        <path d="M83.4814815,40.8888889 L76.6666667,40.8888889 C75.7245185,40.8888889 74.962963,41.6504444 74.962963,42.5925926 C74.962963,43.5347407 75.7245185,44.2962963 76.6666667,44.2962963 L83.4814815,44.2962963 C84.4236296,44.2962963 85.1851852,43.5347407 85.1851852,42.5925926 C85.1851852,41.6504444 84.4236296,40.8888889 83.4814815,40.8888889 Z" id="Shape"></path>
                        <path d="M8.51851852,40.8888889 L1.7037037,40.8888889 C0.761555556,40.8888889 0,41.6504444 0,42.5925926 C0,43.5347407 0.761555556,44.2962963 1.7037037,44.2962963 L8.51851852,44.2962963 C9.46066667,44.2962963 10.2222222,43.5347407 10.2222222,42.5925926 C10.2222222,41.6504444 9.46066667,40.8888889 8.51851852,40.8888889 Z" id="Shape"></path>
                        <path d="M70.3016296,12.4745185 L65.4835556,17.2925926 C64.8174074,17.9587407 64.8174074,19.0354815 65.4835556,19.7016296 C65.8157778,20.0338519 66.2519259,20.2008148 66.6880741,20.2008148 C67.1242222,20.2008148 67.5603704,20.0338519 67.8925926,19.7016296 L72.7106667,14.8835556 C73.3768148,14.2174074 73.3768148,13.1406667 72.7106667,12.4745185 C72.0445185,11.8083704 70.9660741,11.8100741 70.3016296,12.4745185 Z" id="Shape"></path>
                        <path d="M17.2925926,65.4835556 L12.4745185,70.3016296 C11.8083704,70.9677778 11.8083704,72.0445185 12.4745185,72.7106667 C12.8067407,73.0428889 13.2428889,73.2098519 13.679037,73.2098519 C14.1151852,73.2098519 14.5513333,73.0428889 14.8835556,72.7106667 L19.7016296,67.8925926 C20.3677778,67.2264444 20.3677778,66.1497037 19.7016296,65.4835556 C19.0354815,64.8174074 17.9587407,64.8174074 17.2925926,65.4835556 Z" id="Shape"></path>
                        <path d="M67.8925926,65.4835556 C67.2264444,64.8174074 66.1497037,64.8174074 65.4835556,65.4835556 C64.8174074,66.1497037 64.8174074,67.2264444 65.4835556,67.8925926 L70.3016296,72.7106667 C70.6338519,73.0428889 71.07,73.2098519 71.5061481,73.2098519 C71.9422963,73.2098519 72.3784444,73.0428889 72.7106667,72.7106667 C73.3768148,72.0445185 73.3768148,70.9677778 72.7106667,70.3016296 L67.8925926,65.4835556 Z" id="Shape"></path>
                        <path d="M17.2925926,19.7016296 C17.6248148,20.0338519 18.060963,20.2008148 18.4971111,20.2008148 C18.9332593,20.2008148 19.3694074,20.0338519 19.7016296,19.7016296 C20.3677778,19.0354815 20.3677778,17.9587407 19.7016296,17.2925926 L14.8835556,12.4745185 C14.2174074,11.8083704 13.1406667,11.8083704 12.4745185,12.4745185 C11.8083704,13.1406667 11.8083704,14.2174074 12.4745185,14.8835556 L17.2925926,19.7016296 Z" id="Shape"></path>
                        <path d="M42.5925926,22.1481481 C31.3191852,22.1481481 22.1481481,31.3191852 22.1481481,42.5925926 C22.1481481,43.5347407 22.9097037,44.2962963 23.8518519,44.2962963 C24.794,44.2962963 25.5555556,43.5347407 25.5555556,42.5925926 C25.5555556,33.1983704 33.1983704,25.5555556 42.5925926,25.5555556 C43.5347407,25.5555556 44.2962963,24.794 44.2962963,23.8518519 C44.2962963,22.9097037 43.5347407,22.1481481 42.5925926,22.1481481 Z" id="Shape"></path>
                    </g>
                </g>
            </g>
        </g>
    </g>
</svg>