<?xml version="1.0" encoding="UTF-8"?>
<svg width="32px" height="35px" viewBox="0 0 32 35" version="1.1" xmlns="http://www.w3.org/2000/svg" xmlns:xlink="http://www.w3.org/1999/xlink">
    <!-- Generator: Sketch 47.1 (45422) - http://www.bohemiancoding.com/sketch -->
    <title>idea</title>
    <desc>Created with Sketch.</desc>
    <defs></defs>
    <g id="Page-1" stroke="none" stroke-width="1" fill="none" fill-rule="evenodd">
        <g id="Add-Service" transform="translate(-915.000000, -416.000000)" fill-rule="nonzero" fill="#5B5B5B">
            <g id="Group-4" transform="translate(570.000000, 150.000000)">
                <g id="Group-3" transform="translate(89.000000, 110.000000)">
                    <g id="idea" transform="translate(256.000000, 156.000000)">
                        <path d="M16,5.12 C10.00064,5.12 5.12,10.00064 5.12,16 C5.12,20.55168 7.93024,24.58368 12.16,26.176 L12.16,32 C12.16,32.35392 12.44608,32.64 12.8,32.64 L13.44,32.64 L13.44,33.92 C13.44,34.27392 13.72608,34.56 14.08,34.56 L17.92,34.56 C18.27392,34.56 18.56,34.27392 18.56,33.92 L18.56,32.64 L19.2,32.64 C19.55392,32.64 19.84,32.35392 19.84,32 L19.84,26.176 C24.06976,24.58368 26.88,20.55168 26.88,16 C26.88,10.00064 21.99936,5.12 16,5.12 Z M17.92,31.36 C17.56608,31.36 17.28,31.64608 17.28,32 L17.28,33.28 L14.72,33.28 L14.72,32 C14.72,31.64608 14.43392,31.36 14.08,31.36 L13.44,31.36 L13.44,28.16 L18.56,28.16 L18.56,31.36 L17.92,31.36 Z M19.00032,25.11488 C18.73728,25.20128 18.56,25.44704 18.56,25.72288 L18.56,26.88 L13.44,26.88 L13.44,25.72288 C13.44,25.4464 13.26272,25.20128 12.99968,25.11488 C9.0528,23.81696 6.4,20.1536 6.4,16 C6.4,10.70656 10.70656,6.4 16,6.4 C21.29344,6.4 25.6,10.70656 25.6,16 C25.6,20.1536 22.9472,23.81696 19.00032,25.11488 Z" id="Shape"></path>
                        <path d="M16,3.84 C16.35392,3.84 16.64,3.55392 16.64,3.2 L16.64,0.64 C16.64,0.28608 16.35392,0 16,0 C15.64608,0 15.36,0.28608 15.36,0.64 L15.36,3.2 C15.36,3.55392 15.64608,3.84 16,3.84 Z" id="Shape"></path>
                        <path d="M31.36,15.36 L28.8,15.36 C28.44608,15.36 28.16,15.64608 28.16,16 C28.16,16.35392 28.44608,16.64 28.8,16.64 L31.36,16.64 C31.71392,16.64 32,16.35392 32,16 C32,15.64608 31.71392,15.36 31.36,15.36 Z" id="Shape"></path>
                        <path d="M3.2,15.36 L0.64,15.36 C0.28608,15.36 0,15.64608 0,16 C0,16.35392 0.28608,16.64 0.64,16.64 L3.2,16.64 C3.55392,16.64 3.84,16.35392 3.84,16 C3.84,15.64608 3.55392,15.36 3.2,15.36 Z" id="Shape"></path>
                        <path d="M26.40896,4.68608 L24.59904,6.496 C24.3488,6.74624 24.3488,7.15072 24.59904,7.40096 C24.72384,7.52576 24.88768,7.58848 25.05152,7.58848 C25.21536,7.58848 25.3792,7.52576 25.504,7.40096 L27.31392,5.59104 C27.56416,5.3408 27.56416,4.93632 27.31392,4.68608 C27.06368,4.43584 26.65856,4.43648 26.40896,4.68608 Z" id="Shape"></path>
                        <path d="M6.496,24.59904 L4.68608,26.40896 C4.43584,26.6592 4.43584,27.06368 4.68608,27.31392 C4.81088,27.43872 4.97472,27.50144 5.13856,27.50144 C5.3024,27.50144 5.46624,27.43872 5.59104,27.31392 L7.40096,25.504 C7.6512,25.25376 7.6512,24.84928 7.40096,24.59904 C7.15072,24.3488 6.74624,24.3488 6.496,24.59904 Z" id="Shape"></path>
                        <path d="M25.504,24.59904 C25.25376,24.3488 24.84928,24.3488 24.59904,24.59904 C24.3488,24.84928 24.3488,25.25376 24.59904,25.504 L26.40896,27.31392 C26.53376,27.43872 26.6976,27.50144 26.86144,27.50144 C27.02528,27.50144 27.18912,27.43872 27.31392,27.31392 C27.56416,27.06368 27.56416,26.6592 27.31392,26.40896 L25.504,24.59904 Z" id="Shape"></path>
                        <path d="M6.496,7.40096 C6.6208,7.52576 6.78464,7.58848 6.94848,7.58848 C7.11232,7.58848 7.27616,7.52576 7.40096,7.40096 C7.6512,7.15072 7.6512,6.74624 7.40096,6.496 L5.59104,4.68608 C5.3408,4.43584 4.93632,4.43584 4.68608,4.68608 C4.43584,4.93632 4.43584,5.3408 4.68608,5.59104 L6.496,7.40096 Z" id="Shape"></path>
                        <path d="M16,8.32 C11.76512,8.32 8.32,11.76512 8.32,16 C8.32,16.35392 8.60608,16.64 8.96,16.64 C9.31392,16.64 9.6,16.35392 9.6,16 C9.6,12.47104 12.47104,9.6 16,9.6 C16.35392,9.6 16.64,9.31392 16.64,8.96 C16.64,8.60608 16.35392,8.32 16,8.32 Z" id="Shape"></path>
                    </g>
                </g>
            </g>
        </g>
    </g>
</svg>