<?xml version="1.0" encoding="UTF-8"?>
<svg width="32px" height="32px" viewBox="0 0 32 32" version="1.1" xmlns="http://www.w3.org/2000/svg" xmlns:xlink="http://www.w3.org/1999/xlink">
    <!-- Generator: Sketch 47.1 (45422) - http://www.bohemiancoding.com/sketch -->
    <title>vacuum-cleaner</title>
    <desc>Created with Sketch.</desc>
    <defs>
        <linearGradient x1="0%" y1="100%" x2="100%" y2="0%" id="linearGradient-1">
            <stop stop-color="#FF5722" offset="0%"></stop>
            <stop stop-color="#F57C00" offset="100%"></stop>
        </linearGradient>
    </defs>
    <g id="Page-1" stroke="none" stroke-width="1" fill="none" fill-rule="evenodd">
        <g id="Add-Service" transform="translate(-804.000000, -418.000000)" fill-rule="nonzero" fill="#5B5B5B">
            <g id="Group-4" transform="translate(570.000000, 150.000000)">
                <g id="Group-3" transform="translate(89.000000, 110.000000)">
                    <g id="vacuum-cleaner" transform="translate(145.000000, 158.000000)">
                        <path d="M20.7772943,27.6973411 C19.6014035,27.6973411 18.6481404,28.6506043 18.6481404,29.8264951 C18.6481404,31.002386 19.6014035,31.9556491 20.7772943,31.9556491 C21.9531852,31.9556491 22.9064483,31.002386 22.9064483,29.8264951 C22.9064483,28.6506043 21.9531852,27.6973411 20.7772943,27.6973411 Z M20.7772943,30.8911033 C20.1893177,30.8911033 19.7126862,30.4144717 19.7126862,29.8264951 C19.7126862,29.2385185 20.1893177,28.7618869 20.7772943,28.7618869 C21.365271,28.7618869 21.8419025,29.2385185 21.8419025,29.8264951 C21.8419025,30.4144717 21.365271,30.8911033 20.7772943,30.8911033 Z" id="Shape"></path>
                        <path d="M31.9182222,31.2264483 L30.853614,28.5649591 C30.7828772,28.3874308 30.6223782,28.2614893 30.4331228,28.2349162 L26.9891618,27.7451852 C25.3922807,24.551423 22.9809903,23.3803977 20.8252008,23.3271267 L19.2655595,21.2458791 L21.0540663,20.181271 C21.2169981,20.082152 21.3144327,19.903501 21.3095673,19.7128733 L21.3095673,16.5191111 C21.3093801,16.3897388 21.2620975,16.2648577 21.1765146,16.1677973 L10.5306199,3.9251462 C10.355462,3.72216764 10.0567329,3.68112281 9.83329435,3.82933333 L8.68353996,4.6011384 L6.84712671,1.85450292 C6.77957115,1.73947758 6.67128265,1.65395712 6.5437193,1.61497076 L0.688530214,0.0180896686 C0.39454191,-0.0583235867 0.0942534113,0.118019493 0.0178401559,0.412007797 C-0.0585730994,0.705996101 0.117769981,1.0062846 0.411758285,1.08269786 L6.07538402,2.62637037 L7.80001559,5.21331774 L6.64495906,5.98512281 C6.42039766,6.13607797 6.34479532,6.43150097 6.46930214,6.67178168 L14.9859181,23.1728655 C15.1209045,23.4340429 15.4420273,23.5362807 15.7032047,23.4012943 C15.7126862,23.3964288 15.7219805,23.3912515 15.7311501,23.3857622 L16.3272982,23.0291462 L17.290729,24.3173177 C15.1289513,25.5490994 13.9693411,28.002308 14.3897076,30.4546433 C14.4365536,30.7107057 14.6616764,30.895345 14.9219805,30.8911033 L17.0884366,30.8911033 C17.382425,30.8939727 17.6230799,30.6580585 17.6259493,30.3640702 C17.6261988,30.3373723 17.6244522,30.3107368 17.6207096,30.2842885 C17.5974425,30.1327719 17.5850292,29.9798207 17.5834698,29.8264951 C17.5834698,28.0626277 19.0133645,26.6327329 20.777232,26.6327329 C22.5410994,26.6327329 23.9709942,28.0626277 23.9709942,29.8264951 C23.9718051,30.299883 23.8662612,30.767345 23.6622846,31.1945107 C23.5359064,31.4599298 23.6485614,31.7775595 23.9139805,31.9039376 C23.9850292,31.9377466 24.0626901,31.955462 24.1413489,31.9556491 L31.4231267,31.9556491 C31.717115,31.955961 31.9556491,31.7178635 31.955961,31.4238752 C31.9560234,31.3563197 31.9432359,31.2893255 31.9182222,31.2264483 Z M20.2450214,16.7161637 L20.2450214,17.5837817 C17.8070955,17.5465419 15.9866511,16.9982378 13.3997037,8.84884211 L20.2450214,16.7161637 Z M15.6672749,22.1615283 L7.62966082,6.5865731 L8.83262378,5.78813255 L10.0409513,4.98438986 L11.7283431,6.93788694 C11.7208577,6.98903704 11.7208577,7.04106043 11.7283431,7.0922729 C14.8156257,17.5837817 16.9501442,18.5685458 20.2450214,18.6483899 L20.2450214,19.4148928 L15.6672749,22.1615283 Z M17.2641559,22.454269 L18.3660039,21.7942456 L19.5689669,23.4390331 C19.2971228,23.4850682 19.0285848,23.5490682 18.7652242,23.6306589 C18.5948694,23.6838674 18.424577,23.7477427 18.2329513,23.8169825 L17.2641559,22.454269 Z M24.9025497,30.8911033 C25.485848,28.6128031 24.1117817,26.2929591 21.8334815,25.7095984 C19.5551189,25.1262378 17.2353372,26.5003665 16.6519766,28.7786667 C16.5643353,29.1210604 16.5196101,29.4730604 16.518924,29.8264951 L15.3851384,29.8264951 C15.1509084,27.2608187 17.008655,25.2913528 19.1111735,24.6313294 C21.3308382,23.9233996 24.3542456,24.5567875 26.1746901,28.4585419 C26.2497934,28.6213489 26.4018713,28.7354386 26.5792125,28.7619493 L30.0018402,29.2516803 L30.6352904,30.8911657 L24.9025497,30.8911657 L24.9025497,30.8911033 Z" id="Shape"></path>
                    </g>
                </g>
            </g>
        </g>
    </g>
</svg>