<?xml version="1.0" encoding="UTF-8"?>
<svg width="32px" height="24px" viewBox="0 0 32 24" version="1.1" xmlns="http://www.w3.org/2000/svg" xmlns:xlink="http://www.w3.org/1999/xlink">
    <!-- Generator: Sketch 47.1 (45422) - http://www.bohemiancoding.com/sketch -->
    <title>tv</title>
    <desc>Created with Sketch.</desc>
    <defs></defs>
    <g id="Page-1" stroke="none" stroke-width="1" fill="none" fill-rule="evenodd">
        <g id="Add-Service" transform="translate(-804.000000, -356.000000)" fill="#5B5B5B">
            <g id="Group-4" transform="translate(570.000000, 150.000000)">
                <g id="Group-3" transform="translate(89.000000, 110.000000)">
                    <path d="M167.259248,117 C167.731035,117.345728 167.979842,118 167.979842,118 L163.5,118 L154.020158,118 C154.020158,118 154.268965,117.345728 154.740752,117 L167.259248,117 L167.259248,117 L167.259248,117 Z M169.718642,116.999999 C170.319011,118.426718 169.974539,120 168.531236,120 L163,120 L153.468764,120 C152.025461,120 151.680989,118.426718 152.281358,116.999999 L147.9961,117 C146.3414,117 145,115.65441 145,113.991212 L145,99.008788 C145,97.3470803 146.33426,96 147.9961,96 L174.0039,96 C175.6586,96 177,97.3455902 177,99.008788 L177,113.991212 C177,115.65292 175.66574,117 174.0039,117 L169.718639,117 L169.718642,116.999999 L169.718642,116.999999 Z M147,99.008788 L147,113.991212 C147,114.551061 147.447199,115 147.9961,115 L174.0039,115 C174.556067,115 175,114.553452 175,113.991212 L175,99.008788 C175,98.4489393 174.552801,98 174.0039,98 L147.9961,98 C147.443933,98 147,98.4465482 147,99.008788 L147,99.008788 Z M148,100.991884 C148,99.8917969 148.894979,99 149.997005,99 L172.002995,99 C173.105911,99 174,99.8933973 174,100.991884 L174,112.008116 C174,113.108203 173.105021,114 172.002995,114 L149.997005,114 C148.894089,114 148,113.106603 148,112.008116 L148,100.991884 L148,100.991884 Z M149,100.991884 L149,112.008116 C149,112.55442 149.446478,113 149.997005,113 L172.002995,113 C172.553686,113 173,112.554967 173,112.008116 L173,100.991884 C173,100.44558 172.553522,100 172.002995,100 L149.997005,100 C149.446314,100 149,100.445033 149,100.991884 L149,100.991884 Z" id="tv"></path>
                </g>
            </g>
        </g>
    </g>
</svg>