<?xml version="1.0" encoding="UTF-8"?>
<svg width="32px" height="26px" viewBox="0 0 32 26" version="1.1" xmlns="http://www.w3.org/2000/svg" xmlns:xlink="http://www.w3.org/1999/xlink">
    <!-- Generator: Sketch 47.1 (45422) - http://www.bohemiancoding.com/sketch -->
    <title>router</title>
    <desc>Created with Sketch.</desc>
    <defs></defs>
    <g id="Page-1" stroke="none" stroke-width="1" fill="none" fill-rule="evenodd">
        <g id="Add-Service" transform="translate(-919.000000, -293.000000)" fill="#5B5B5B">
            <g id="Group-4" transform="translate(570.000000, 150.000000)">
                <g id="Group-3" transform="translate(89.000000, 110.000000)">
                    <path d="M271.710276,48 C271.821067,47.7458369 271.871437,47.4572468 271.845942,47.1512983 L271.083539,38.0024733 C271.03798,37.455761 270.552285,37 270,37 C269.443865,37 268.962598,37.4488226 268.916461,38.0024733 L268.154058,47.1512983 C268.128533,47.4575995 268.178997,47.746084 268.289764,48 L264.004258,48 C261.789028,48 260,49.7919219 260,52.0023695 L260,54.9976305 C260,57.2081782 261.792767,59 264.004258,59 L287.995742,59 C290.210972,59 292,57.2080781 292,54.9976305 L292,52.0023695 C292,49.7918218 290.207233,48 287.995742,48 L271.710276,48 L271.710276,48 L271.710276,48 Z M262,52.0023695 L262,54.9976305 C262,56.1033552 262.897083,57 264.004258,57 L287.995742,57 C289.105034,57 290,56.1048782 290,54.9976305 L290,52.0023695 C290,50.8966448 289.102917,50 287.995742,50 L264.004258,50 C262.894966,50 262,50.8951218 262,52.0023695 L262,52.0023695 Z M265.5,52 C266.328427,52 267,52.6657972 267,53.5 C267,54.3284271 266.334203,55 265.5,55 C264.671573,55 264,54.3342028 264,53.5 C264,52.6715729 264.665797,52 265.5,52 L265.5,52 Z M285,53.5 C285,52.6715729 285.665797,52 286.5,52 C287.328427,52 288,52.6657972 288,53.5 C288,54.3284271 287.334203,55 286.5,55 C285.671573,55 285,54.3342028 285,53.5 L285,53.5 Z M269,53.5 C269,53.2238576 269.214035,53 269.504684,53 L270.495316,53 C270.774045,53 271,53.2319336 271,53.5 C271,53.7761424 270.785965,54 270.495316,54 L269.504684,54 C269.225955,54 269,53.7680664 269,53.5 L269,53.5 Z M273,53.5 C273,53.2238576 273.214035,53 273.504684,53 L274.495316,53 C274.774045,53 275,53.2319336 275,53.5 C275,53.7761424 274.785965,54 274.495316,54 L273.504684,54 C273.225955,54 273,53.7680664 273,53.5 L273,53.5 Z M277,53.5 C277,53.2238576 277.214035,53 277.504684,53 L278.495316,53 C278.774045,53 279,53.2319336 279,53.5 C279,53.7761424 278.785965,54 278.495316,54 L277.504684,54 C277.225955,54 277,53.7680664 277,53.5 L277,53.5 Z M281,53.5 C281,53.2238576 281.214035,53 281.504684,53 L282.495316,53 C282.774045,53 283,53.2319336 283,53.5 C283,53.7761424 282.785965,54 282.495316,54 L281.504684,54 C281.225955,54 281,53.7680664 281,53.5 L281,53.5 Z M266.01991,42.4024096 C266.154729,42.5900927 266.302915,42.7704182 266.464466,42.9419272 C266.464466,42.9419272 266.9825,43.268353 267,42.3733847 C267.008911,41.9176663 266.464466,41.1770259 266.464466,41.1770259 C266.249616,40.7468443 266.109305,40.2857056 266.043531,39.8150896 L266.112708,39.8150896 C266.051577,39.547101 266.015314,39.2740247 266.003917,39 C266.015314,38.7259753 266.051577,38.452899 266.112708,38.1849104 L266.043531,38.1849104 C266.109305,37.7142944 266.249616,37.2531557 266.464466,36.8229741 C266.464466,36.8229741 267.008911,36.0823337 267,35.6266153 C266.9825,34.731647 266.464466,35.0580728 266.464466,35.0580728 C266.302915,35.2295818 266.154729,35.4099073 266.01991,35.5975904 C265.302284,36.5966032 264.963358,37.8040786 265.003133,39 C264.963358,40.1959214 265.302284,41.4033968 266.01991,42.4024096 L266.01991,42.4024096 Z M262.001273,39 C261.964015,36.8539687 262.744639,34.6958037 264.343146,33.0582261 C264.343146,33.0582261 265,32.7066931 265,33.7311354 C265,33.8677088 264.343146,34.6277179 264.343146,34.6277179 C263.594833,35.6763342 263.159203,36.8860394 263.036257,38.1222112 L263.071375,38.1222112 C263.030585,38.4133244 263.007278,38.706514 263.001455,39 C263.007278,39.293486 263.030585,39.5866756 263.071375,39.8777888 L263.036257,39.8777888 C263.159203,41.1139606 263.594833,42.3236658 264.343146,43.3722821 C264.343146,43.3722821 265,44.1322912 265,44.2688646 C265,45.2933069 264.343146,44.9417739 264.343146,44.9417739 C262.744639,43.3041963 261.964015,41.1460313 262.001273,39 L262.001273,39 L262.001273,39 Z M273.980198,42.4024096 C273.845379,42.5900927 273.697194,42.7704182 273.535642,42.9419272 C273.535642,42.9419272 273.017608,43.268353 273.000108,42.3733847 C272.991197,41.9176663 273.535642,41.1770259 273.535642,41.1770259 C273.750492,40.7468443 273.890804,40.2857056 273.956578,39.8150896 L273.8874,39.8150896 C273.948531,39.547101 273.984795,39.2740247 273.996191,39 C273.984795,38.7259753 273.948531,38.452899 273.8874,38.1849104 L273.956578,38.1849104 C273.890804,37.7142944 273.750492,37.2531557 273.535642,36.8229741 C273.535642,36.8229741 272.991197,36.0823337 273.000108,35.6266153 C273.017608,34.731647 273.535642,35.0580728 273.535642,35.0580728 C273.697194,35.2295818 273.845379,35.4099073 273.980198,35.5975904 C274.697824,36.5966032 275.03675,37.8040786 274.996975,39 C275.03675,40.1959214 274.697824,41.4033968 273.980198,42.4024096 L273.980198,42.4024096 Z M277.998727,39 C278.035985,36.8539687 277.255361,34.6958037 275.656854,33.0582261 C275.656854,33.0582261 275,32.7066931 275,33.7311354 C275,33.8677088 275.656854,34.6277179 275.656854,34.6277179 C276.405167,35.6763342 276.840797,36.8860394 276.963743,38.1222112 L276.928625,38.1222112 C276.969415,38.4133244 276.992722,38.706514 276.998545,39 C276.992722,39.293486 276.969415,39.5866756 276.928625,39.8777888 L276.963743,39.8777888 C276.840797,41.1139606 276.405167,42.3236658 275.656854,43.3722821 C275.656854,43.3722821 275,44.1322912 275,44.2688646 C275,45.2933069 275.656854,44.9417739 275.656854,44.9417739 C277.255361,43.3041963 278.035985,41.1460313 277.998727,39 L277.998727,39 L277.998727,39 Z M265.5,54 C265.776142,54 266,53.7761424 266,53.5 C266,53.2238576 265.776142,53 265.5,53 C265.223858,53 265,53.2238576 265,53.5 C265,53.7761424 265.223858,54 265.5,54 L265.5,54 Z M286.5,54 C286.776142,54 287,53.7761424 287,53.5 C287,53.2238576 286.776142,53 286.5,53 C286.223858,53 286,53.2238576 286,53.5 C286,53.7761424 286.223858,54 286.5,54 L286.5,54 Z" id="router"></path>
                </g>
            </g>
        </g>
    </g>
</svg>