<?xml version="1.0" encoding="UTF-8"?>
<svg width="24px" height="31px" viewBox="0 0 24 31" version="1.1" xmlns="http://www.w3.org/2000/svg" xmlns:xlink="http://www.w3.org/1999/xlink">
    <!-- Generator: Sketch 47.1 (45422) - http://www.bohemiancoding.com/sketch -->
    <title>drop</title>
    <desc>Created with Sketch.</desc>
    <defs></defs>
    <g id="Page-1" stroke="none" stroke-width="1" fill="none" fill-rule="evenodd">
        <g id="Add-Service" transform="translate(-923.000000, -349.000000)" fill="#5B5B5B">
            <g id="Group-4" transform="translate(570.000000, 150.000000)">
                <g id="Group-3" transform="translate(89.000000, 110.000000)">
                    <path d="M264,107.821893 C264,101.559113 269.311491,98.7825625 275.002982,89.5096234 C275.5,88.8218926 276.5,88.8218926 277.024049,89.5603759 C282.723996,98.8641354 288,101.567735 288,107.821893 C288,114.44931 282.627417,119.821893 276,119.821893 C269.372583,119.821893 264,114.44931 264,107.821893 Z M274.96623,92.8349232 C272.684982,95.7699241 267.552583,102.970862 267.436119,103.159895 C266.445201,104.76826 266,106.165491 266,107.821893 C266,113.34474 270.477153,117.821893 276,117.821893 C281.522847,117.821893 286,113.34474 286,107.821893 C286,106.165703 285.557424,104.777586 284.569739,103.179247 C284.484485,103.041282 279.326404,95.7927096 277.050256,92.8402488 C276.493587,92.1181765 275.524968,92.1160648 274.96623,92.8349232 Z M276,115.366617 C276,115.866617 275.261967,115.844403 274.925729,115.801315 C271.321467,115.33944 268.467454,112.479094 268.015234,108.871821 C267.983819,108.621226 267.95269,107.821893 268.45269,107.821893 C268.95269,107.821893 269.036009,108.949937 269.036009,108.949937 C269.501858,111.948445 271.870862,114.317449 274.86937,114.783298 C274.86937,114.783298 276,114.866617 276,115.366617 Z" id="drop"></path>
                </g>
            </g>
        </g>
    </g>
</svg>