<?xml version="1.0" encoding="UTF-8"?>
<svg width="20px" height="34px" viewBox="0 0 20 34" version="1.1" xmlns="http://www.w3.org/2000/svg" xmlns:xlink="http://www.w3.org/1999/xlink">
    <!-- Generator: Sketch 47.1 (45422) - http://www.bohemiancoding.com/sketch -->
    <title>Fitness</title>
    <desc>Created with Sketch.</desc>
    <defs></defs>
    <g id="Page-1" stroke="none" stroke-width="1" fill="none" fill-rule="evenodd">
        <g id="Add-Service" transform="translate(-698.000000, -418.000000)" fill="#5B5B5B">
            <g id="Group-4" transform="translate(570.000000, 150.000000)">
                <g id="Group-3" transform="translate(89.000000, 110.000000)">
                    <g id="Fitness" transform="translate(39.000000, 158.000000)">
                        <path d="M9.74633346,34 C2.88780251,32.5833333 -4.31725072e-09,26.9166667 0,21.9583333 C-4.31725068e-09,12.75 9.74633363,11.3333333 7.21950627,0 C11.55121,3.54166667 17.326815,10.625 19.4926669,17.7083333 C21.6585188,24.7916667 16.6048644,33.2916667 9.74633346,34 Z M6.2087798,26.2083333 C6.2087798,30.4583333 9.81853293,33.2916667 9.81853293,33.2916667 C9.81853293,33.2916667 13.4282861,30.4583333 13.4282861,26.2083333 C13.4282861,21.9583333 9.81853293,19.125 9.81853293,19.125 C9.81853293,19.125 6.2087798,21.9583333 6.2087798,26.2083333 Z" id="Flame"></path>
                    </g>
                </g>
            </g>
        </g>
    </g>
</svg>