<?xml version="1.0" encoding="UTF-8"?>
<svg width="17px" height="20px" viewBox="0 0 17 20" version="1.1" xmlns="http://www.w3.org/2000/svg" xmlns:xlink="http://www.w3.org/1999/xlink">
    <!-- Generator: Sketch 47.1 (45422) - http://www.bohemiancoding.com/sketch -->
    <title>Group 2</title>
    <desc>Created with Sketch.</desc>
    <defs></defs>
    <g id="Page-1" stroke="none" stroke-width="1" fill="none" fill-rule="evenodd" stroke-linecap="round" stroke-linejoin="round">
        <g id="House" transform="translate(-12.000000, -206.000000)" stroke="#FFFFFF" stroke-width="2">
            <g id="side" transform="translate(-3.000000, 0.000000)">
                <g id="Group-2" transform="translate(16.000000, 207.000000)">
                    <path d="M7.5,10 C8.88,10 10,8.88 10,7.5 C10,6.12 8.88,5 7.5,5 C6.12,5 5,6.12 5,7.5 C5,8.88 6.12,10 7.5,10 Z" id="Stroke-178"></path>
                    <path d="M15,7.71428571 C15,14.1428571 8.75,18 7.5,18 C6.25,18 0,14.1428571 0,7.71428571 C0,3.45471429 3.35875,0 7.5,0 C11.64125,0 15,3.45471429 15,7.71428571 Z" id="Stroke-179"></path>
                </g>
            </g>
        </g>
    </g>
</svg>