<?xml version="1.0" encoding="UTF-8"?>
<svg width="32px" height="29px" viewBox="0 0 32 29" version="1.1" xmlns="http://www.w3.org/2000/svg" xmlns:xlink="http://www.w3.org/1999/xlink">
    <!-- Generator: Sketch 47.1 (45422) - http://www.bohemiancoding.com/sketch -->
    <title>camera</title>
    <desc>Created with Sketch.</desc>
    <defs></defs>
    <g id="Page-1" stroke="none" stroke-width="1" fill="none" fill-rule="evenodd">
        <g id="House" transform="translate(-995.000000, -141.000000)" fill-rule="nonzero" fill="#FFFFFF">
            <g id="Card" transform="translate(560.000000, 133.000000)">
                <g id="camera" transform="translate(435.000000, 8.000000)">
                    <path d="M29.1902241,6.67752846 L24.7367423,6.67752846 L22.1658174,3.90243902 L12.3317007,3.90243902 L12.3317007,8.06504065 L8.11706988,8.06504065 L8.11706988,12.2276423 L3.90243902,12.2276423 L3.90243902,26.1029593 C3.90243902,27.6292683 5.16682828,28.8780488 6.71221488,28.8780488 L29.1902241,28.8780488 C30.7356107,28.8780488 32,27.6292683 32,26.1029593 L32,9.45255285 C32,7.92630894 30.7356107,6.67752846 29.1902241,6.67752846 Z M17.9511866,24.7154472 C14.0737262,24.7154472 10.9267799,21.6073496 10.9267799,17.7777561 C10.9267799,13.9481626 14.0737262,10.8401301 17.9511866,10.8401301 C21.828647,10.8401301 24.9755933,13.9482276 24.9755933,17.7778211 C24.9755933,21.6074146 21.828647,24.7154472 17.9511866,24.7154472 Z" id="Shape"></path>
                    <polygon id="Shape" points="4.09755297 10.9268293 6.8292763 10.9268293 6.8292763 6.8292763 10.9268293 6.8292763 10.9268293 4.09755297 6.8292763 4.09755297 6.8292763 0 4.09755297 0 4.09755297 4.09755297 0 4.09755297 0 6.8292763 4.09755297 6.8292763"></polygon>
                    <path d="M17.5609756,13.2682927 C15.186597,13.2682927 13.2682927,15.186597 13.2682927,17.5609756 L13.2682927,17.5609756 C13.2682927,19.9353543 15.186597,21.8536585 17.5609756,21.8536585 C19.9353543,21.8536585 21.8536585,19.9353543 21.8536585,17.5609756 C21.8536585,15.186597 19.9353543,13.2682927 17.5609756,13.2682927 Z" id="Shape"></path>
                </g>
            </g>
        </g>
    </g>
</svg>