<?xml version="1.0" encoding="UTF-8"?>
<svg width="24px" height="32px" viewBox="0 0 24 32" version="1.1" xmlns="http://www.w3.org/2000/svg" xmlns:xlink="http://www.w3.org/1999/xlink">
    <!-- Generator: Sketch 47.1 (45422) - http://www.bohemiancoding.com/sketch -->
    <title>Path</title>
    <desc>Created with Sketch.</desc>
    <defs></defs>
    <g id="Page-1" stroke="none" stroke-width="1" fill="none" fill-rule="evenodd">
        <g id="Add-Service" transform="translate(-808.000000, -291.000000)" fill="#5B5B5B">
            <g id="Group-4" transform="translate(570.000000, 150.000000)">
                <g id="Group-3" transform="translate(89.000000, 110.000000)">
                    <path d="M156,54 C155.377972,52.0915044 154.500962,51.119319 153.219714,50.1202512 C152.84167,49.825467 152.446082,49.5629309 151.93817,49.2592362 C151.928966,49.253733 150.948173,48.681457 150.688216,48.5170816 C149.901775,48.0198 149.408695,47.5673264 149.101616,46.9392101 L149,46.73136 L149,46.5 L149,41.0098624 C149,39.3491551 150.335764,38 151.991155,38 L155,38 L155,31.9975446 C155,31.446616 155.443865,31 156,31 C156.552285,31 157,31.4463114 157,31.9975446 L157,38 L165,38 L165,31.9975446 C165,31.446616 165.443865,31 166,31 C166.552285,31 167,31.4463114 167,31.9975446 L167,38 L170.008845,38 C171.665587,38 173,39.3423001 173,41.0098624 L173,46.5 L173,46.73136 L172.898384,46.9392101 C172.613375,47.5221836 172.156956,47.9695425 171.455551,48.4527129 C171.619123,48.3400345 169.39256,49.744833 168.756287,50.260075 C167.494254,51.2820467 166.629939,52.2066735 166,54 L166,56 C166,56 166,57 164,56.9999999 L164,63 L158,63 L157.99703,56.9999999 C156,57 156,56 156,56 L156,54 Z M158,55 L164,55.0006073 L164,54.5 L164,54 L164,53.8294732 L164.056515,53.6685837 C164.813811,51.5126947 165.956957,49.9534049 167.497649,48.7057813 C167.97224,48.321466 168.450189,47.9900108 169.066364,47.6012494 C169.226782,47.5000371 169.749208,47.1761683 169.749353,47.176078 C169.9943,47.0232304 170.167142,46.911644 170.320972,46.8056764 C170.764454,46.5001789 170.897757,46.2091335 171,46 L171,41.0098624 C171,40.4442398 170.55837,40 170.008845,40 L151.991155,40 C151.444824,40 151,40.4492836 151,41.0098624 L151,46 C151.107002,46.2188676 151.256644,46.5102234 151.757096,46.8266684 C151.981434,46.9685214 152.927634,47.5206132 152.964545,47.542683 C153.537287,47.8851414 153.997404,48.190503 154.449543,48.5430639 C156.037853,49.7815659 157.202122,51.3931148 157.950775,53.6901178 L158,53.8411492 L158,54 L158,55 Z M157,45 L165,45 L165,46 L157,46 L157,45 Z M158,47 L164,47 L164,48 L158,48 L158,47 Z M158,43 L164,43 L164,44 L158,44 L158,43 Z M160,57 L160,61 L162,61 L162,57 L160,57 Z" id="Path"></path>
                </g>
            </g>
        </g>
    </g>
</svg>