<?xml version="1.0" encoding="UTF-8"?>
<svg width="111px" height="111px" viewBox="0 0 111 111" version="1.1" xmlns="http://www.w3.org/2000/svg" xmlns:xlink="http://www.w3.org/1999/xlink">
    <!-- Generator: Sketch 47.1 (45422) - http://www.bohemiancoding.com/sketch -->
    <title>Group</title>
    <desc>Created with Sketch.</desc>
    <defs>
        <rect id="path-1" x="0.140158667" y="0.0806393125" width="8.68604591" height="4.48342872" rx="0.828"></rect>
    </defs>
    <g id="Page-1" stroke="none" stroke-width="1" fill="none" fill-rule="evenodd">
        <g id="Sign-Up" transform="translate(-666.000000, -440.000000)">
            <g id="Group" transform="translate(666.000000, 440.000000)">
                <circle id="Oval" fill="#71E2EF" cx="55.5" cy="55.5" r="55.5"></circle>
                <g id="camera" transform="translate(25.000000, 28.000000)">
                    <path d="M1,14 L4.38358583,14 L4.38358583,14 C4.93587058,14 5.38358583,14.4477153 5.38358583,15 L5.38358583,15 C5.38358583,15.5522847 4.93587058,16 4.38358583,16 L1,16 L1,16 C0.44771525,16 6.76353751e-17,15.5522847 0,15 C-6.76353751e-17,14.4477153 0.44771525,14 1,14 L1,14 Z M56.6164142,14 L60,14 L60,14 C60.5522847,14 61,14.4477153 61,15 L61,15 C61,15.5522847 60.5522847,16 60,16 L56.6164142,16 L56.6164142,16 C56.0641294,16 55.6164142,15.5522847 55.6164142,15 C55.6164142,14.4477153 56.0641294,14 56.6164142,14 L56.6164142,14 Z" id="Combined-Shape" fill="#BFC6CB"></path>
                    <path d="M12.828,0 L14.172,0 L14.172,-1.88737914e-15 C14.6292918,-1.97138228e-15 15,0.370708227 15,0.828 L15,1.172 L15,1.172 C15,1.62929177 14.6292918,2 14.172,2 L12.828,2 L12.828,2 C12.3707082,2 12,1.62929177 12,1.172 L12,0.828 L12,0.828 C12,0.370708227 12.3707082,2.63751609e-15 12.828,2.55351296e-15 Z" id="Rectangle-6-Copy-2" fill="#613F34"></path>
                    <path d="M10.828,1 L16.172,1 L16.172,1 C16.6292918,1 17,1.37070823 17,1.828 L17,3.172 L17,3.172 C17,3.62929177 16.6292918,4 16.172,4 L10.828,4 L10.828,4 C10.3707082,4 10,3.62929177 10,3.172 L10,1.828 L10,1.828 C10,1.37070823 10.3707082,1 10.828,1 Z" id="Rectangle-6" fill="#795549"></path>
                    <path d="M43.828,0 L52.172,0 L52.172,-2.88657986e-15 C52.6292918,-2.970583e-15 53,0.370708227 53,0.828 L53,3.172 L53,3.172 C53,3.62929177 52.6292918,4 52.172,4 L43.828,4 L43.828,4 C43.3707082,4 43,3.62929177 43,3.172 L43,0.828 L43,0.828 C43,0.370708227 43.3707082,4.52489523e-15 43.828,4.4408921e-15 Z" id="Rectangle-6-Copy" fill="#613F34"></path>
                    <path d="M25.828,0 L26.7110178,0 L26.7110178,0 C27.1683096,-8.40031359e-17 27.5390178,0.370708227 27.5390178,0.828 L27.5390178,4.172 C27.5390178,4.62929177 27.1683096,5 26.7110178,5 L25.828,5 L25.828,5 C25.3707082,5 25,4.62929177 25,4.172 L25,0.828 L25,0.828 C25,0.370708227 25.3707082,-2.70191666e-17 25.828,-1.11022302e-16 L25.828,0 Z M35.2889822,0 L36.172,0 L36.172,1.11022302e-16 C36.6292918,2.70191666e-17 37,0.370708227 37,0.828 L37,4.172 C37,4.62929177 36.6292918,5 36.172,5 L35.2889822,5 L35.2889822,5 C34.8316904,5 34.4609822,4.62929177 34.4609822,4.172 L34.4609822,0.828 C34.4609822,0.370708227 34.8316904,-1.38041469e-16 35.2889822,-2.22044605e-16 L35.2889822,0 Z" id="Combined-Shape" fill="#A37C6F"></path>
                    <rect id="Rectangle" fill="#D3D3D3" x="4" y="3" width="53" height="36" rx="3.726"></rect>
                    <path d="M58,32 L58,36.274 L58,36.274 C58,38.331813 56.331813,40 54.274,40 L46,40 L46,32 L58,32 Z" id="Combined-Shape" fill="#949494"></path>
                    <path d="M16,32 L16,36.274 L16,36.274 C16,38.331813 14.331813,40 12.274,40 L4,40 L4,32 L16,32 Z" id="Combined-Shape-Copy-2" fill="#949494" transform="translate(10.000000, 36.000000) scale(-1, 1) translate(-10.000000, -36.000000) "></path>
                    <path d="M55,29 L55,35.068 L55,35.068 C55,36.1350141 54.1350141,37 53.068,37 L43,37 L43,30.932 L43,30.932 C43,29.8649859 43.8649859,29 44.932,29 L44.932,29 L55,29 Z" id="Combined-Shape-Copy" fill="#D3D3D3"></path>
                    <path d="M19,29 L19,35.068 L19,35.068 C19,36.1350141 18.1350141,37 17.068,37 L7,37 L7,30.932 L7,30.932 C7,29.8649859 7.86498586,29 8.932,29 L8.932,29 L19,29 Z" id="Combined-Shape-Copy-3" fill="#D3D3D3" transform="translate(13.000000, 33.000000) scale(-1, 1) translate(-13.000000, -33.000000) "></path>
                    <path d="M57,14 L57,6.726 C57,4.66818702 55.331813,3 53.274,3 L7.726,3 L7.726,3 C5.66818702,3 4,4.66818702 4,6.726 L4,6.726 L4,14 L57,14 Z" id="Combined-Shape" fill="#795549"></path>
                    <path d="M23,3 L7.726,3 L7.726,3 C5.66818702,3 4,4.66818702 4,6.726 L4,6.726 L4,11 L19.274,11 C21.331813,11 23,9.33181298 23,7.274 L23,3 Z" id="Combined-Shape" fill="#613F34"></path>
                    <rect id="Rectangle-8" fill="#949494" x="44" y="21" width="4" height="9" rx="1.932"></rect>
                    <g id="lensa" transform="translate(14.000000, 9.000000)">
                        <ellipse id="Oval" fill="#68453A" cx="16.4169917" cy="16.2493646" rx="16.4169917" ry="16.2493646"></ellipse>
                        <ellipse id="Oval-Copy" fill="#949494" cx="16.4169917" cy="16.2493646" rx="15.1668313" ry="15.0119691"></ellipse>
                        <ellipse id="Oval-Copy-2" stroke="#707578" stroke-width="0.5" fill="#858585" cx="16.4169917" cy="16.2493646" rx="12.3292345" ry="12.2033458"></ellipse>
                        <ellipse id="Oval-Copy-3" fill="#BABDBE" cx="16.4169917" cy="16.2493646" rx="10.8406303" ry="10.7299411"></ellipse>
                        <path d="M6.50820304,16.2493646 C6.50820304,21.6659603 10.9445188,26.0569787 16.4169917,26.0569787 L16.4169917,26.0569787 C21.8894645,26.0569787 26.3257803,21.6659603 26.3257803,16.2493646" id="Oval-Copy-5" fill="#D5D5D5"></path>
                        <ellipse id="Oval-Copy-4" fill="#613F34" cx="16.4169917" cy="16.2493646" rx="6.82408106" ry="6.75440319"></ellipse>
                        <path d="M7.93196735,12.0485858 C7.93196735,13.6787786 9.26713261,15.0003111 10.9141424,15.0003111 C12.5611522,15.0003111 13.8963175,13.6787786 13.8963175,12.0485858" id="Oval-Copy-6" fill="#D5D5D5"></path>
                    </g>
                    <path d="M6,16 C6,17.1045695 6.67157288,18 7.5,18 C8.32842712,18 9,17.1045695 9,16" id="Oval-Copy-8" fill="#949494"></path>
                    <path d="M9,16 C9,17.1045695 9.67157288,18 10.5,18 C11.3284271,18 12,17.1045695 12,16" id="Oval-Copy-9" fill="#949494"></path>
                    <path d="M9,18 C9,19.1045695 9.67157288,20 10.5,20 C11.3284271,20 12,19.1045695 12,18" id="Oval-Copy-10" fill="#949494"></path>
                    <rect id="Rectangle-5" fill="#BFC6CB" x="44" y="6" width="10" height="6" rx="0.828"></rect>
                    <g id="Oval-Copy-7" transform="translate(45.000000, 7.000000)">
                        <mask id="mask-2" fill="white">
                            <use xlink:href="#path-1"></use>
                        </mask>
                        <use id="Mask" fill="#707578" xlink:href="#path-1"></use>
                        <ellipse fill="#939393" mask="url(#mask-2)" cx="4.48318162" cy="2.32235367" rx="3.02666683" ry="2.84882347"></ellipse>
                    </g>
                    <path d="M46,7 C46,8.1045695 46.6715729,9 47.5,9 C48.3284271,9 49,8.1045695 49,7" id="Oval-Copy-11" fill="#D5D5D5"></path>
                    <path d="M49,10 C49,10.5522847 49.4477153,11 50,11 C50.5522847,11 51,10.5522847 51,10" id="Oval-Copy-12" fill="#D5D5D5"></path>
                    <circle id="Oval-2" fill="#A37C6F" cx="8" cy="6" r="2"></circle>
                </g>
                <text id="ADD-PIC" font-family="Helvetica-Bold, Helvetica" font-size="14" font-weight="bold" fill="#FFFFFF">
                    <tspan x="27.2207031" y="84">ADD PIC</tspan>
                </text>
            </g>
        </g>
    </g>
</svg>