<?xml version="1.0" encoding="UTF-8"?>
<svg width="62px" height="65px" viewBox="0 0 62 65" version="1.1" xmlns="http://www.w3.org/2000/svg" xmlns:xlink="http://www.w3.org/1999/xlink">
    <!-- Generator: Sketch 47.1 (45422) - http://www.bohemiancoding.com/sketch -->
    <title>avatar.astronaut</title>
    <desc>Created with Sketch.</desc>
    <defs></defs>
    <g id="Page-1" stroke="none" stroke-width="1" fill="none" fill-rule="evenodd">
        <g id="House" transform="translate(-9.000000, -84.000000)">
            <g id="side" transform="translate(-3.000000, 0.000000)">
                <g id="avatar.astronaut" transform="translate(12.000000, 84.000000)">
                    <g id="astronaut">
                        <g id="Layer_1">
                            <ellipse id="Oval" fill="#386895" cx="31" cy="32.4590164" rx="31" ry="32.4590164"></ellipse>
                            <path d="M29.5736367,29.9453445 C29.5736367,29.9453445 31.2551445,54.4598899 32.12375,64.8945761 C46.3766055,64.3625525 58.1784023,53.75771 61.2309336,39.6713845 L43.8383594,21.4603548 L29.5736367,29.9453445 Z" id="Shape" fill="#273B7A"></path>
                            <path d="M45.7693203,32.046939 L16.2306797,32.046939 C14.2227031,32.046939 12.5948398,33.7514178 12.5948398,35.8538998 L12.5948398,56.2412052 C17.742293,60.2245351 24.1080703,62.5808568 31.0001211,62.5808568 C37.8921719,62.5808568 44.2579492,60.2245351 49.4054023,56.2412052 L49.4054023,35.8540266 C49.4052813,33.7514178 47.777418,32.046939 45.7693203,32.046939 Z" id="Shape" fill="#707070"></path>
                            <path d="M45.7693203,32.046939 L30.9304922,32.046939 L30.9304922,62.5800961 C30.9536211,62.5800961 30.9768711,62.58073 31,62.58073 C37.8920508,62.58073 44.2578281,60.2244083 49.4052813,56.2410784 L49.4052813,35.8540266 C49.4052813,33.7514178 47.777418,32.046939 45.7693203,32.046939 Z" id="Shape" fill="#4C4C4C"></path>
                            <path d="M44.8883633,41.6903099 L38.7169414,40.5435938 L37.62625,39.0644262 C37.4220859,38.7875102 37.035918,38.6831596 36.7037578,38.8152779 L31.0001211,38.6042943 L25.3305117,38.8174334 C25.0008945,38.6839203 24.6155742,38.7842136 24.408625,39.0574526 L23.2830586,40.5433402 L17.1116367,41.6900564 C13.9694961,42.2739383 11.7075859,44.8369326 11.7075859,47.8141598 L11.7075859,57.8652971 C17.0020469,62.2790894 23.7062813,64.9180328 30.9997578,64.9180328 C38.2932344,64.9180328 44.9975898,62.2790894 50.2921719,57.8655507 L50.2921719,47.8144134 C50.2921719,44.837313 48.030625,42.2740651 44.8883633,41.6903099 Z" id="Shape" fill="#EFEFEF"></path>
                            <path d="M44.8882422,41.6903099 L38.7168203,40.5435937 L37.6261289,39.0644262 C37.4219648,38.7875102 37.0357969,38.6831596 36.7036367,38.8152779 L31,38.6044211 L30.9304922,38.6070838 L30.9304922,64.917272 C30.9536211,64.917272 30.9766289,64.9181596 31,64.9181596 C38.2937188,64.9181596 44.997832,62.2792162 50.2924141,57.8656775 L50.2924141,47.8145402 C50.2921719,44.837313 48.030625,42.2740651 44.8882422,41.6903099 Z" id="Shape" fill="#BCBCBC"></path>
                            <path d="M43.6114297,41.4530802 L38.7168203,40.5435937 L37.6261289,39.0644262 C37.4219648,38.7875102 37.0357969,38.6831596 36.7036367,38.8152779 L31,38.6044211 L25.3303906,38.8175602 C25.0007734,38.6840471 24.6154531,38.7843404 24.4085039,39.0575794 L23.2829375,40.543467 L18.3883281,41.4529534 C20.2140586,43.4826562 22.8026797,44.7517277 25.67575,44.7517277 L36.3241289,44.7517277 C39.1971992,44.7517277 41.7856992,43.4826562 43.6114297,41.4530802 Z" id="Shape" fill="#C6C6C6"></path>
                            <path d="M38.7168203,40.5435937 L37.6261289,39.0644262 C37.4219648,38.7875102 37.0357969,38.6831596 36.7036367,38.8152779 L31,38.6044211 L30.9304922,38.6070838 L30.9304922,44.7517277 L36.32425,44.7517277 C39.1973203,44.7517277 41.7856992,43.4826563 43.6116719,41.4529534 L38.7168203,40.5435937 Z" id="Shape" fill="#7F7F7F"></path>
                            <path d="M36.3240078,41.9101691 L25.6756289,41.9101691 C20.146125,41.9101691 15.6635977,37.2166714 15.6635977,31.4269211 L15.6635977,29.2245261 C15.6635977,22.1370492 21.1509609,16.3915497 27.9197383,16.3912961 L34.0796563,16.3912961 C40.8485547,16.3912961 46.3360391,22.1369224 46.3360391,29.2242725 L46.3360391,31.4264139 C46.3361602,37.2166714 41.8537539,41.9101691 36.3240078,41.9101691 Z" id="Shape" fill="#EFEFEF"></path>
                            <path d="M34.0800195,16.3914229 L30.9304922,16.3914229 L30.9304922,41.9101691 L36.32425,41.9101691 C41.8537539,41.9101691 46.3362812,37.2166714 46.3362812,31.4269211 L46.3362812,29.2247797 C46.3361602,22.1370492 40.8487969,16.3914229 34.0800195,16.3914229 Z" id="Shape" fill="#D8D8D8"></path>
                            <path d="M21.6605234,25.2709926 C20.4081719,25.2709926 19.3126367,26.1608261 19.0078437,27.432687 C18.7970195,28.3128842 18.6848867,29.234416 18.6848867,30.1830815 L18.6848867,30.1830815 C18.6848867,35.2714127 22.6243086,39.3962436 27.4839219,39.3962436 L34.5158359,39.3962436 C39.3754492,39.3962436 43.3148711,35.2714127 43.3148711,30.1830815 L43.3148711,30.1830815 C43.3148711,29.2342892 43.2027383,28.3128842 42.9919141,27.432687 C42.6873633,26.1608261 41.5918281,25.270739 40.3392344,25.270739 L21.6605234,25.270739 L21.6605234,25.2709926 L21.6605234,25.2709926 Z" id="Shape" fill="#FFC61B"></path>
                            <path d="M42.9920352,27.4330674 C42.6874844,26.1612065 41.591707,25.271373 40.3393555,25.271373 L30.9303711,25.271373 L30.9303711,39.3968776 L34.515957,39.3968776 C39.3755703,39.3968776 43.3149922,35.2720466 43.3149922,30.1837154 C43.3149922,29.2347964 43.2029805,28.3132646 42.9920352,27.4330674 Z" id="Shape" fill="#D48B07"></path>
                            <path d="M20.3535586,62.9529944 C23.6738281,64.2242213 27.2595352,64.9180328 31,64.9180328 C34.7404648,64.9180328 38.3261719,64.2242213 41.6464414,62.9529944 L41.6464414,57.4497964 C41.6464414,56.2024065 40.6807188,55.1912321 39.4893984,55.1912321 L22.5108438,55.1912321 C21.3195234,55.1912321 20.3535586,56.2024065 20.3535586,57.4497964 L20.3535586,62.9529944 L20.3535586,62.9529944 Z" id="Shape" fill="#BABABA"></path>
                            <g id="Group" transform="translate(30.878906, 41.461322)" fill="#7F7F7F">
                                <path d="M8.61025,13.7299103 L0.05134375,13.7299103 L0.05134375,23.4558235 C0.0744726563,23.4558235 0.0977226563,23.4567111 0.120851563,23.4567111 C3.86131641,23.4567111 7.44702344,22.7628996 10.767293,21.4916726 L10.767293,15.9884746 C10.7675352,14.7410848 9.80169141,13.7299103 8.61025,13.7299103 Z" id="Shape"></path>
                                <path d="M12.9594531,0.0339805328 L12.9594531,20.54922 C13.8528828,20.1228151 14.7231836,19.6526665 15.5689023,19.1424513 L15.5689023,0.709787398 C15.0806523,0.494873207 14.5589805,0.331183402 14.009457,0.22911501 L12.9594531,0.0339805328 Z" id="Shape"></path>
                            </g>
                            <path d="M15.5521914,42.1709823 L15.5521914,60.6037731 C16.3979102,61.1137346 17.2682109,61.5841368 18.1616406,62.0105418 L18.1616406,41.4950487 L17.1113945,41.6901831 C16.5621133,41.7923783 16.0404414,41.9560681 15.5521914,42.1709823 Z" id="Shape" fill="#BABABA"></path>
                        </g>
                    </g>
                </g>
            </g>
        </g>
    </g>
</svg>