<?xml version="1.0" encoding="UTF-8"?>
<svg width="32px" height="29px" viewBox="0 0 32 29" version="1.1" xmlns="http://www.w3.org/2000/svg" xmlns:xlink="http://www.w3.org/1999/xlink">
    <!-- Generator: Sketch 47.1 (45422) - http://www.bohemiancoding.com/sketch -->
    <title>garage</title>
    <desc>Created with Sketch.</desc>
    <defs></defs>
    <g id="Page-1" stroke="none" stroke-width="1" fill="none" fill-rule="evenodd">
        <g id="Add-Service" transform="translate(-690.000000, -291.000000)" fill="#5B5B5B">
            <g id="Group-4" transform="translate(570.000000, 150.000000)">
                <g id="Group-3" transform="translate(89.000000, 110.000000)">
                    <path d="M34.9838672,39.6409075 C34.9839643,42.3885807 34.983998,53.5475172 34.9783758,56.9797846 C34.9773302,57.6181286 35.422804,57.988951 36.0194775,57.9885842 C36.637303,57.9882043 37.4143281,57.9877079 38.0178341,57.9872609 C38.5747052,57.9868484 38.983838,57.2906415 38.983838,56.9892091 L38.983838,51.9892091 L38.983838,51.4892091 L38.983838,43.9888241 C38.983838,42.8844672 39.8783518,41.9892091 40.9778983,41.9892091 L52.9897777,41.9892091 C54.0910668,41.9892091 54.983838,42.8766424 54.983838,43.9888241 L54.983838,51.4892091 L54.983838,51.4892091 L54.983838,51.9892091 C54.983838,51.9892091 54.9800572,55.2510212 54.9771621,56.9646709 C54.9761306,57.5751928 55.4292346,57.989278 56.0322961,57.9897276 C56.6392952,57.9901801 57.3966821,57.9910183 57.9922442,57.9925602 C58.5621262,57.9940356 58.983838,57.3035738 58.983838,56.9892091 L58.983838,39.5697046 L58.983838,39.5697046 L47.0502443,33.170506 L34.9838672,39.6409075 L34.9838672,39.6409075 Z M32.9776277,58.009248 C32.9776277,59.0997795 33.8684053,60 34.9621737,60 L38.9680383,60 C40.0608308,60 40.9525842,59.0987803 40.9525842,57.9963251 L40.9525842,52.9973943 L52.915019,52.9973943 L52.915019,57.9963251 C52.915019,59.1092213 53.7987073,60 54.899565,60 L58.9054296,60 C59.9953273,60 60.8899755,59.1075005 60.8899755,58.009248 L60.8899755,40.6457617 L61.5318377,40.9911594 C62.0170367,41.2522538 62.6212859,41.0691991 62.881466,40.5822953 C63.1416462,40.0953915 62.9592325,39.4890192 62.4740335,39.2279248 L47.8146315,31.3394346 C47.6085418,31.1040759 47.3050555,30.9819735 47,31.002158 C46.6949445,30.9819735 46.3914582,31.1040759 46.1853685,31.3394346 L31.5259665,39.2279248 C31.0407675,39.4890192 30.8583538,40.0953915 31.118534,40.5822953 C31.3787141,41.0691991 31.9829633,41.2522538 32.4681623,40.9911594 L32.9776277,40.7170068 L32.9776277,58.009248 Z M39.983838,48.9892091 L53.983838,48.9892091 L53.983838,50.9892091 L39.983838,50.9892091 L39.983838,48.9892091 L39.983838,48.9892091 Z M39.983838,45.9892091 L53.983838,45.9892091 L53.983838,47.9892091 L39.983838,47.9892091 L39.983838,45.9892091 L39.983838,45.9892091 Z M52.9769925,42.9892091 C53.5330579,42.9892091 53.983838,43.4330739 53.983838,43.9892091 L53.983838,44.9892091 L39.983838,44.9892091 L39.983838,43.9892091 C39.983838,43.4369244 40.4337868,42.9892091 40.9906835,42.9892091 L52.9769925,42.9892091 Z" id="garage"></path>
                </g>
            </g>
        </g>
    </g>
</svg>