<?xml version="1.0" encoding="UTF-8"?>
<svg width="28px" height="28px" viewBox="0 0 28 28" version="1.1" xmlns="http://www.w3.org/2000/svg" xmlns:xlink="http://www.w3.org/1999/xlink">
    <!-- Generator: Sketch 47.1 (45422) - http://www.bohemiancoding.com/sketch -->
    <title>Path 107</title>
    <desc>Created with Sketch.</desc>
    <defs></defs>
    <g id="Page-1" stroke="none" stroke-width="1" fill="none" fill-rule="evenodd">
        <g id="Add-Service" transform="translate(-694.000000, -354.000000)" fill="#5B5B5B">
            <g id="Group-4" transform="translate(570.000000, 150.000000)">
                <g id="Group-3" transform="translate(89.000000, 110.000000)">
                    <path d="M35,99.0450123 C35,103.122068 37.8716565,108.859111 44.2907587,114.615026 C50.709861,120.370942 55.129053,122.400476 58.7883909,121.535703 C60.3525111,121.166071 64.952768,117.743277 62.0710024,115.118282 C61.4623222,114.563837 58.0084321,111.335098 55.2660005,110.800642 C53.6034664,110.476641 52.7359669,113.119805 51.1584176,112.140516 C48.9999996,110.800642 45.7675707,107.863399 44.5862455,105.276552 C44.0290433,104.056399 46.9150296,102.036568 46.2652257,100.9512 C43.7605926,96.767708 42.0170727,94 40.4064891,94 C39.3802963,94 35,94.9679566 35,99.0450123 Z" id="Path-107"></path>
                </g>
            </g>
        </g>
    </g>
</svg>